<mxfile host="app.diagrams.net" modified="2023-09-20T22:37:44.426Z" agent="Mozilla/5.0 (Windows NT 10.0; Win64; x64) AppleWebKit/537.36 (KHTML, like Gecko) Chrome/116.0.0.0 Safari/537.36" version="21.8.0" etag="8-IN09aaYRlfAs5pfY2M" type="github">
  <diagram name="PÃ¡gina-1" id="-G6HyV3yGPQi0sT3C72R">
    <mxGraphModel>
      <root>
        <mxCell id="0" />
        <mxCell id="1" parent="0" />
      </root>
    </mxGraphModel>
  </diagram>
</mxfile>
